<?xml version="1.0" encoding="UTF-8"?><svg xmlns:svg="http://www.w3.org/2000/svg" xmlns="http://www.w3.org/2000/svg" xmlns:xlink="http://www.w3.org/1999/xlink" version="1.0" width="601" height="46" viewBox="0 0 601 46" ><text x="20" y="8" font-family="Courier New, monospace" font-size="11" dominant-baseline="middle" text-anchor="middle" >0</text><text x="60" y="8" font-family="Courier New, monospace" font-size="11" dominant-baseline="middle" text-anchor="middle" >1</text><text x="100" y="8" font-family="Courier New, monospace" font-size="11" dominant-baseline="middle" text-anchor="middle" >2</text><text x="140" y="8" font-family="Courier New, monospace" font-size="11" dominant-baseline="middle" text-anchor="middle" >3</text><text x="180" y="8" font-family="Courier New, monospace" font-size="11" dominant-baseline="middle" text-anchor="middle" >4</text><text x="220" y="8" font-family="Courier New, monospace" font-size="11" dominant-baseline="middle" text-anchor="middle" >5</text><text x="260" y="8" font-family="Courier New, monospace" font-size="11" dominant-baseline="middle" text-anchor="middle" >6</text><text x="300" y="8" font-family="Courier New, monospace" font-size="11" dominant-baseline="middle" text-anchor="middle" >7</text><text x="340" y="8" font-family="Courier New, monospace" font-size="11" dominant-baseline="middle" text-anchor="middle" >8</text><text x="380" y="8" font-family="Courier New, monospace" font-size="11" dominant-baseline="middle" text-anchor="middle" >9</text><text x="420" y="8" font-family="Courier New, monospace" font-size="11" dominant-baseline="middle" text-anchor="middle" >10</text><text x="460" y="8" font-family="Courier New, monospace" font-size="11" dominant-baseline="middle" text-anchor="middle" >11</text><text x="500" y="8" font-family="Courier New, monospace" font-size="11" dominant-baseline="middle" text-anchor="middle" >12</text><text x="540" y="8" font-family="Courier New, monospace" font-size="11" dominant-baseline="middle" text-anchor="middle" >13</text><text x="580" y="8" font-family="Courier New, monospace" font-size="11" dominant-baseline="middle" text-anchor="middle" >14</text><line x1="0" y1="15" x2="40" y2="15" stroke="#000000" stroke-width="1" /><line x1="0" y1="45" x2="40" y2="45" stroke="#000000" stroke-width="1" /><line x1="40" y1="15" x2="40" y2="45" stroke="#000000" stroke-width="1" /><line x1="0" y1="15" x2="0" y2="45" stroke="#000000" stroke-width="1" /><text font-size="18" font-family="Courier New, monospace" x="20" y="31" text-anchor="middle" dominant-baseline="middle" >0</text><line x1="40" y1="15" x2="80" y2="15" stroke="#000000" stroke-width="1" /><line x1="40" y1="45" x2="80" y2="45" stroke="#000000" stroke-width="1" /><line stroke-dasharray="1,3" x1="80" y1="15" x2="80" y2="45" stroke="#000000" stroke-width="1" /><line x1="40" y1="15" x2="40" y2="45" stroke="#000000" stroke-width="1" /><text font-size="18" font-family="Courier New, monospace" x="60" y="31" text-anchor="middle" dominant-baseline="middle" >1</text><line x1="80" y1="15" x2="120" y2="15" stroke="#000000" stroke-width="1" /><line x1="80" y1="45" x2="120" y2="45" stroke="#000000" stroke-width="1" /><line stroke-dasharray="1,3" x1="120" y1="15" x2="120" y2="45" stroke="#000000" stroke-width="1" /><line stroke-dasharray="1,3" x1="80" y1="15" x2="80" y2="45" stroke="#000000" stroke-width="1" /><text font-size="18" font-family="Courier New, monospace" x="100" y="31" text-anchor="middle" dominant-baseline="middle" >0</text><line x1="120" y1="15" x2="160" y2="15" stroke="#000000" stroke-width="1" /><line x1="120" y1="45" x2="160" y2="45" stroke="#000000" stroke-width="1" /><line stroke-dasharray="1,3" x1="160" y1="15" x2="160" y2="45" stroke="#000000" stroke-width="1" /><line stroke-dasharray="1,3" x1="120" y1="15" x2="120" y2="45" stroke="#000000" stroke-width="1" /><text font-size="18" font-family="Courier New, monospace" x="140" y="31" text-anchor="middle" dominant-baseline="middle" >1</text><line x1="160" y1="15" x2="200" y2="15" stroke="#000000" stroke-width="1" /><line x1="160" y1="45" x2="200" y2="45" stroke="#000000" stroke-width="1" /><line stroke-dasharray="1,3" x1="200" y1="15" x2="200" y2="45" stroke="#000000" stroke-width="1" /><line stroke-dasharray="1,3" x1="160" y1="15" x2="160" y2="45" stroke="#000000" stroke-width="1" /><text font-size="18" font-family="Courier New, monospace" x="180" y="31" text-anchor="middle" dominant-baseline="middle" >0</text><line x1="200" y1="15" x2="240" y2="15" stroke="#000000" stroke-width="1" /><line x1="200" y1="45" x2="240" y2="45" stroke="#000000" stroke-width="1" /><line stroke-dasharray="1,3" x1="240" y1="15" x2="240" y2="45" stroke="#000000" stroke-width="1" /><line stroke-dasharray="1,3" x1="200" y1="15" x2="200" y2="45" stroke="#000000" stroke-width="1" /><text font-size="18" font-family="Courier New, monospace" x="220" y="31" text-anchor="middle" dominant-baseline="middle" >0</text><line x1="240" y1="15" x2="280" y2="15" stroke="#000000" stroke-width="1" /><line x1="240" y1="45" x2="280" y2="45" stroke="#000000" stroke-width="1" /><line stroke-dasharray="1,3" x1="280" y1="15" x2="280" y2="45" stroke="#000000" stroke-width="1" /><line stroke-dasharray="1,3" x1="240" y1="15" x2="240" y2="45" stroke="#000000" stroke-width="1" /><text font-size="18" font-family="Courier New, monospace" x="260" y="31" text-anchor="middle" dominant-baseline="middle" >1</text><line x1="280" y1="15" x2="320" y2="15" stroke="#000000" stroke-width="1" /><line x1="280" y1="45" x2="320" y2="45" stroke="#000000" stroke-width="1" /><line stroke-dasharray="1,3" x1="320" y1="15" x2="320" y2="45" stroke="#000000" stroke-width="1" /><line stroke-dasharray="1,3" x1="280" y1="15" x2="280" y2="45" stroke="#000000" stroke-width="1" /><text font-size="18" font-family="Courier New, monospace" x="300" y="31" text-anchor="middle" dominant-baseline="middle" >0</text><line x1="320" y1="15" x2="360" y2="15" stroke="#000000" stroke-width="1" /><line x1="320" y1="45" x2="360" y2="45" stroke="#000000" stroke-width="1" /><line stroke-dasharray="1,3" x1="360" y1="15" x2="360" y2="45" stroke="#000000" stroke-width="1" /><line stroke-dasharray="1,3" x1="320" y1="15" x2="320" y2="45" stroke="#000000" stroke-width="1" /><text font-size="18" font-family="Courier New, monospace" x="340" y="31" text-anchor="middle" dominant-baseline="middle" >1</text><line x1="360" y1="15" x2="400" y2="15" stroke="#000000" stroke-width="1" /><line x1="360" y1="45" x2="400" y2="45" stroke="#000000" stroke-width="1" /><line stroke-dasharray="1,3" x1="400" y1="15" x2="400" y2="45" stroke="#000000" stroke-width="1" /><line stroke-dasharray="1,3" x1="360" y1="15" x2="360" y2="45" stroke="#000000" stroke-width="1" /><text font-size="18" font-family="Courier New, monospace" x="380" y="31" text-anchor="middle" dominant-baseline="middle" >1</text><line x1="400" y1="15" x2="440" y2="15" stroke="#000000" stroke-width="1" /><line x1="400" y1="45" x2="440" y2="45" stroke="#000000" stroke-width="1" /><line stroke-dasharray="1,3" x1="440" y1="15" x2="440" y2="45" stroke="#000000" stroke-width="1" /><line stroke-dasharray="1,3" x1="400" y1="15" x2="400" y2="45" stroke="#000000" stroke-width="1" /><text font-size="18" font-family="Courier New, monospace" x="420" y="31" text-anchor="middle" dominant-baseline="middle" >0</text><line x1="440" y1="15" x2="480" y2="15" stroke="#000000" stroke-width="1" /><line x1="440" y1="45" x2="480" y2="45" stroke="#000000" stroke-width="1" /><line stroke-dasharray="1,3" x1="480" y1="15" x2="480" y2="45" stroke="#000000" stroke-width="1" /><line stroke-dasharray="1,3" x1="440" y1="15" x2="440" y2="45" stroke="#000000" stroke-width="1" /><text font-size="18" font-family="Courier New, monospace" x="460" y="31" text-anchor="middle" dominant-baseline="middle" >1</text><line x1="480" y1="15" x2="520" y2="15" stroke="#000000" stroke-width="1" /><line x1="480" y1="45" x2="520" y2="45" stroke="#000000" stroke-width="1" /><line stroke-dasharray="1,3" x1="520" y1="15" x2="520" y2="45" stroke="#000000" stroke-width="1" /><line stroke-dasharray="1,3" x1="480" y1="15" x2="480" y2="45" stroke="#000000" stroke-width="1" /><text font-size="18" font-family="Courier New, monospace" x="500" y="31" text-anchor="middle" dominant-baseline="middle" >1</text><line x1="520" y1="15" x2="560" y2="15" stroke="#000000" stroke-width="1" /><line x1="520" y1="45" x2="560" y2="45" stroke="#000000" stroke-width="1" /><line stroke-dasharray="1,3" x1="560" y1="15" x2="560" y2="45" stroke="#000000" stroke-width="1" /><line stroke-dasharray="1,3" x1="520" y1="15" x2="520" y2="45" stroke="#000000" stroke-width="1" /><text font-size="18" font-family="Courier New, monospace" x="540" y="31" text-anchor="middle" dominant-baseline="middle" >1</text><line x1="560" y1="15" x2="600" y2="15" stroke="#000000" stroke-width="1" /><line x1="560" y1="45" x2="600" y2="45" stroke="#000000" stroke-width="1" /><line x1="600" y1="15" x2="600" y2="45" stroke="#000000" stroke-width="1" /><line stroke-dasharray="1,3" x1="560" y1="15" x2="560" y2="45" stroke="#000000" stroke-width="1" /><text font-size="18" font-family="Courier New, monospace" x="580" y="31" text-anchor="middle" dominant-baseline="middle" >0</text><line x1="0" y1="15" x2="600" y2="15" stroke="#000000" stroke-width="1" /></svg>